<?xml version="1.0" encoding="utf-8"?>
<!-- Generator: Adobe Illustrator 19.1.0, SVG Export Plug-In . SVG Version: 6.00 Build 0)  -->
<svg version="1.1" id="Layer_1" xmlns="http://www.w3.org/2000/svg" xmlns:xlink="http://www.w3.org/1999/xlink" x="0px" y="0px"
	 width="562px" height="352px" viewBox="0 0 562 352" enable-background="new 0 0 562 352" xml:space="preserve">
<g>
	<g>
		
			<text transform="matrix(1 0 0 1 94.4809 265.4856)" fill="#7BB5DA" font-family="'Montserrat-Light'" font-size="65.2164px" letter-spacing="6">CUMULUS</text>
	</g>
	<g>
		<path fill="none" stroke="#7BB5DA" stroke-width="7" stroke-miterlimit="10" d="M344.1,133.4c0,17.2-14,31.1-31.1,31.1
			c-4.2,0-8.3-0.9-12-2.4c-5.3,4.1-11.9,6.6-19.1,6.6c-7.1,0-13.7-2.4-19-6.4c-3.6,1.5-7.5,2.2-11.6,2.2
			c-17.2,0-31.1-13.9-31.1-31.1c0-17,13.5-31,30.5-31.3l0.1-1.1c0-17.2,14-29.9,31.2-29.9c17.2,0,31.1,13.9,31.1,31.1
			C330.1,102.3,344.1,116.2,344.1,133.4z"/>
		<path fill="none" stroke="#7BB5DA" stroke-width="7" stroke-miterlimit="10" d="M251.7,101.9c0,0,27.2-0.5,27.2,30"/>
		<path fill="none" stroke="#7BB5DA" stroke-width="7" stroke-miterlimit="10" d="M308.2,164.1c0,0-29.2-4.3-29.2-33"/>
	</g>
</g>
</svg>
